<svg viewBox="0 0 240 210" xmlns="http://www.w3.org/2000/svg" fill="none"
     stroke="currentColor" stroke-width="4" stroke-linecap="round" stroke-linejoin="round"
     role="img" aria-label="First Evangelical Church in Assiut emblem">
  <!-- heritage year -->
  <text x="120" y="20" text-anchor="middle" font-family="'El Messiri', serif"
        font-size="16" stroke="none" fill="currentColor" letter-spacing="1">منذ ١٨٧٠</text>

  <!-- left tower -->
  <path d="M40 78 L64 40 L88 78" />
  <path d="M46 78 L46 150 M82 78 L82 150" />
  <path d="M56 92 q8 -8 16 0 L72 108 L56 108 Z" fill="currentColor" stroke="none"/>

  <!-- right tower -->
  <path d="M152 78 L176 40 L200 78" />
  <path d="M158 78 L158 150 M194 78 L194 150" />
  <path d="M168 92 q8 -8 16 0 L184 108 L168 108 Z" fill="currentColor" stroke="none"/>

  <!-- central sanctuary + dome -->
  <path d="M96 150 L96 92 q24 -30 48 0 L144 150" />
  <path d="M110 62 q10 -12 20 0" />
  <!-- rooftop cross -->
  <path d="M120 62 L120 44 M112 51 L128 51" stroke-width="3.5"/>
  <!-- doorway cross -->
  <path d="M120 108 L120 148 M104 122 L136 122" stroke-width="6"/>

  <!-- open book / Bible base -->
  <path d="M28 158 q92 -22 92 8 q0 -30 92 -8" />
  <path d="M28 158 L28 170 q92 -20 92 6 q0 -26 92 -6 L212 158" />
  <path d="M40 164 q80 -16 80 6 M120 170 q0 -22 80 -6" stroke-width="2"/>
</svg>
